<?xml version="1.0" standalone="no"?>
<!DOCTYPE svg PUBLIC "-//W3C//DTD SVG 1.1//EN" "http://www.w3.org/Graphics/SVG/1.1/DTD/svg11.dtd" >
<svg xmlns="http://www.w3.org/2000/svg" xmlns:xlink="http://www.w3.org/1999/xlink" version="1.1" viewBox="-10 0 266 256">
   <path fill="currentColor"
d="M39 204q-3 6 -9 1q-9 -6 -6 -12q3 -4 3 -12q1 -6 2 0q0 6 1 7t4 -3q18 -31 45 -72q4 -7 2 1q-1 1 -2 4q-37 72 -40 86zM54 96q2 1 2 4q0 2 -2 2q-10 0 -14 1l-5 2q-1 0 1 -4q-18 1 -29 -7q-3 -2 1 -1q13 3 33 1q2 0 8 1q2 1 5 1zM35 32q-4 -3 1 -1q12 5 27 8q1 0 3 5
q0 6 -8 2q-6 -3 -11 -2q-2 1 -3 1q0 -1 2 -5q-7 -4 -11 -8zM149 0q22 1 29 14q1 1 0 3q-3 3 -6 1q-4 -2 -11 -1q-5 3 -13 2q-3 1 0 -1q2 0 7 -6q3 -4 0 -6q-2 -1 -6 -5q-3 -1 0 -1zM237 16q10 5 19 11q0 1 -1 1q-4 3 -5 1h-3q-4 -2 -8 -2h-16q-51 1 -122 20q-2 1 -6 2q-12 4 -21 1q-2 0 1 -1q10 -1 23 -4q69 -17 130 -25q5 -6 9 -4
zM167 41q7 1 12 5q0 1 -2 2q-4 0 -8 4l-3 3q-13 11 -25 24q-2 3 1 1q31 -8 50 -16q-1 -4 2 -5l2 -2q10 4 18 3q5 0 4 4q0 3 -4 2q-18 1 -40 12q-15 9 -21 15q-1 5 5 5q5 0 8 2q0 4 -1 3q-3 0 -4 6q0 13 -1 19q4 0 11 -5q5 -3 14 -6q-1 -8 1 -22q0 -3 -1 -4h-4q-3 2 -6 1
q-2 0 3 -3q8 -3 17 3q1 2 3 3l4 2q-1 4 -2 4q-9 2 -9 16v28q2 2 0 5q0 33 6 50q9 22 9 27q-3 1 -3 0q-3 -2 -6 -7q-5 -8 -9 -14q-6 -5 -15 -23q-2 -3 1 -1q0 2 2 3q8 12 14 15q1 1 2 0t1 -4q-3 -18 -6 -45q-1 1 -3 2h-3q-5 1 -4 -1q1 0 -3 0q-5 3 -15 2q1 58 -33 68
q-5 0 -1 -2q20 -11 28 -32q6 -37 4 -80q0 -4 -2 -6q-9 -5 -3 -10q7 -6 26 -19h-1q-3 1 -9 4q-7 2 -11 3q-24 7 -34 13q-6 4 -5 1q1 -4 1 -7q0 -2 3 -2h1q9 0 13 -6l22 -22l6 -6q3 -4 1 -8q0 -1 2 -2zM159 153h1q10 -2 14 -4q6 -1 12 -4q0 -13 -1 -22q-3 3 -9 4q-3 1 -3 2
q-3 2 -4 2l1 -3q-6 2 -10 1q0 3 -1 12v12z" />
</svg>
