<?xml version="1.0" standalone="no"?>
<!DOCTYPE svg PUBLIC "-//W3C//DTD SVG 1.1//EN" "http://www.w3.org/Graphics/SVG/1.1/DTD/svg11.dtd" >
<svg xmlns="http://www.w3.org/2000/svg" xmlns:xlink="http://www.w3.org/1999/xlink" version="1.1" viewBox="-10 0 266 256">
   <path fill="currentColor"
d="M109 204q-3 6 -9 1q-9 -6 -6 -12q3 -4 3 -12q1 -6 2 0q0 6 1 7t4 -3q18 -31 45 -72q4 -7 2 1q-1 1 -2 4q-37 72 -40 86zM124 96q2 1 2 4q0 2 -2 2q-10 0 -14 1l-5 2q-1 0 1 -4q-18 1 -29 -7q-3 -2 1 -1q13 3 33 1q2 0 8 1q2 1 5 1zM105 32q-4 -3 1 -1q12 5 27 8q1 0 3 5
q0 6 -8 2q-6 -3 -11 -2q-2 1 -3 1q0 -1 2 -5q-7 -4 -11 -8z" />
</svg>
