<?xml version="1.0" standalone="no"?>
<!DOCTYPE svg PUBLIC "-//W3C//DTD SVG 1.1//EN" "http://www.w3.org/Graphics/SVG/1.1/DTD/svg11.dtd" >
<svg xmlns="http://www.w3.org/2000/svg" xmlns:xlink="http://www.w3.org/1999/xlink" version="1.1" viewBox="-10 0 270 256">
   <path fill="currentColor"
d="M86 127l1 -1h-3l-1 -1q-5 -1 0 -2q14 0 59 -12q-2 -12 -5 -17q-3 -4 1 -2q18 12 14 12q0 2 -1 3t0 2q35 -6 45 -6h1q4 -1 5 -4q2 -5 9 -6q6 6 9 5q7 3 16 8q1 1 1 2t-2 2q-6 4 -16 -3q-5 -4 -17 -2q-15 1 -51 8q-2 10 -1 19q13 19 38 44q4 5 19 4q20 -1 40 7q6 3 0 2h-6
q-22 -3 -35 -1q-10 2 -17 -5q-28 -29 -39 -44v25q1 17 1 26q-2 26 3 34q1 3 -1 4q-3 1 -4 -1q-8 -11 -21 -35q-2 -2 -1 -3q1 0 4 2q7 12 12 14q1 1 2 1t2 -2q-1 -13 -1 -33q-1 -19 -2 -36q-27 34 -57 44q-8 2 -1 -2q38 -17 54 -50q-1 0 -4 -5q-4 -4 -4 -5q-9 2 -30 9
q-5 2 -13 0q0 1 -1 1q-1 1 0 1q-31 40 -51 54q-14 10 -22 7q-5 -1 0 -2q16 -5 40 -29q0 -12 -1 -15q-2 -2 2 -5l1 -10q0 2 1 -5q0 -3 -2 -3q-9 6 -20 6h-3q0 -1 3 -3q11 -5 23 -13v-22q0 -6 -1 -11q-1 -4 1 -2q9 7 8 9q-2 3 -3 17v5q9 -5 16 -6q2 1 2 2q1 1 -1 2q-3 2 -10 7
q-5 4 -7 5q-3 29 -2 36l15 -15q5 -6 9 -10zM211 22q1 2 0 4q0 1 -2 0q-5 0 -13 5q-24 16 -49 26q-5 2 0 -2q28 -15 47 -36q3 -3 2 -5t-5 -1q-52 17 -82 51q-1 4 -2 4q-1 1 -2 -2q-8 -8 -5 -16q2 -9 4 -21q0 -1 1 -1l2 2q-1 4 -1 11v7q0 3 1 3q2 1 5 -2q49 -32 80 -39
q9 -2 19 12zM155 63q-3 -1 1 -2q18 8 24 9q8 1 16 13q-1 3 -5 3q-3 1 -6 -2q-4 -3 -12 -5l-4 -2q-3 0 -3 -1q-1 -1 2 -2q1 -1 1 -2l-3 -2q-7 -2 -11 -7zM77 45q7 2 13 3q1 1 1 3q-1 2 -2 1q-14 0 -41 12q-7 3 -18 1q-5 -1 0 -2q13 -1 35 -10q6 -2 7 -6q1 -2 5 -2zM123 67h-1
q0 -2 2 -1q1 0 2 2q-3 19 -16 29q-3 3 -5 3q-1 -1 0 -5q5 -17 9 -16q5 -1 9 -12zM143 114q-4 2 -5 1q0 2 2 4l3 3v-8z" />
</svg>
